<?xml version="1.0" encoding="UTF-8" standalone="no"?>
<!-- Generator: Adobe Illustrator 25.3.1, SVG Export Plug-In . SVG Version: 6.00 Build 0)  -->

<svg
   version="1.1"
   id="Слой_1"
   x="0px"
   y="0px"
   viewBox="0 0 30 30"
   style="enable-background:new 0 0 30 30;"
   xml:space="preserve"
   sodipodi:docname="trash-can-gray.svg"
   inkscape:version="1.1.2 (0a00cf5339, 2022-02-04)"
   xmlns:inkscape="http://www.inkscape.org/namespaces/inkscape"
   xmlns:sodipodi="http://sodipodi.sourceforge.net/DTD/sodipodi-0.dtd"
   xmlns:xlink="http://www.w3.org/1999/xlink"
   xmlns="http://www.w3.org/2000/svg"
   xmlns:svg="http://www.w3.org/2000/svg"><defs
   id="defs4115"><linearGradient
     inkscape:collect="always"
     id="linearGradient2659"><stop
       style="stop-color:#b3b3b3;stop-opacity:1;"
       offset="0"
       id="stop2655" /><stop
       style="stop-color:#b3b3b3;stop-opacity:0;"
       offset="1"
       id="stop2657" /></linearGradient><linearGradient
     inkscape:collect="always"
     xlink:href="#linearGradient2659"
     id="linearGradient2661"
     x1="3.8"
     y1="6.9"
     x2="26.3"
     y2="6.9"
     gradientUnits="userSpaceOnUse" /></defs><sodipodi:namedview
   id="namedview4113"
   pagecolor="#ffffff"
   bordercolor="#666666"
   borderopacity="1.0"
   inkscape:pageshadow="2"
   inkscape:pageopacity="0.0"
   inkscape:pagecheckerboard="true"
   showgrid="false"
   inkscape:zoom="18.313717"
   inkscape:cx="11.029984"
   inkscape:cy="10.83887"
   inkscape:window-width="1920"
   inkscape:window-height="1016"
   inkscape:window-x="0"
   inkscape:window-y="27"
   inkscape:window-maximized="1"
   inkscape:current-layer="g4110" />
<style
   type="text/css"
   id="style4094">
	.st0{fill:#FFFFFF;}
	.st1{fill:none;stroke:#FFFFFF;stroke-width:1.5;stroke-linecap:round;stroke-linejoin:round;stroke-miterlimit:10;}
</style>
<g
   id="g4110">
	<g
   id="g4098"
   style="fill:#b3b3b3;fill-opacity:1;stroke:#b3b3b3;stroke-opacity:1;stroke-width:0.29722689;stroke-miterlimit:4;stroke-dasharray:none"
   transform="matrix(1.0187469,0,0,1,-0.48367025,0)">
		<path
   class="st0"
   d="m 23.5,6.2 c 0.4,0 0.7,0.3 0.7,0.7 0,0.4 -0.3,0.7 -0.7,0.7 H 6.5 C 6.1,7.7 5.8,7.3 5.8,7 5.8,6.7 6.1,6.3 6.5,6.3 h 17 m 0,-1.6 h -17 c -1.2,0 -2.2,1 -2.2,2.2 0,1.2 1,2.2 2.2,2.2 h 17.1 c 1.2,0 2.2,-1 2.2,-2.2 C 25.7,5.7 24.7,4.7 23.5,4.7 Z"
   id="path4096"
   style="fill:#b3b3b3;fill-opacity:1;stroke-width:0.29722689;stroke-miterlimit:4;stroke-dasharray:none;stroke:#b3b3b3;stroke-opacity:1" />
	</g>
	<path
   class="st1"
   d="M6.2,9.2v16.4c0,1.6,1.3,3,3,3h11.2c1.6,0,3-1.3,3-3V9.2"
   id="path4100"
   style="stroke:#b3b3b3;stroke-opacity:1;stroke-width:2;stroke-miterlimit:10;stroke-dasharray:none" />
	<path
   class="st1"
   d="M9.9,4.9V4c0-1.4,1.1-2.5,2.5-2.5h5c1.4,0,2.5,1.1,2.5,2.5v0.8"
   id="path4102"
   style="stroke:#b3b3b3;stroke-opacity:1;stroke-width:1.8;stroke-miterlimit:10;stroke-dasharray:none" />
	<line
   class="st1"
   x1="11"
   y1="11.9"
   x2="11"
   y2="24.5"
   id="line4104"
   style="stroke:#b3b3b3;stroke-opacity:1;stroke-width:2;stroke-miterlimit:10;stroke-dasharray:none" />
	<line
   class="st1"
   x1="15.1"
   y1="11.9"
   x2="15.1"
   y2="24.5"
   id="line4106"
   style="stroke:#b3b3b3;stroke-opacity:1;stroke-width:2;stroke-miterlimit:10;stroke-dasharray:none" />
	<line
   class="st1"
   x1="18.9"
   y1="11.9"
   x2="18.9"
   y2="24.5"
   id="line4108"
   style="stroke:#b3b3b3;stroke-opacity:1;stroke-width:2;stroke-miterlimit:10;stroke-dasharray:none" />
</g>
</svg>
