<?xml version="1.0" encoding="UTF-8"?>
<!DOCTYPE svg PUBLIC "-//W3C//DTD SVG 1.1//EN" "http://www.w3.org/Graphics/SVG/1.1/DTD/svg11.dtd">
<!-- Creator: CorelDRAW -->
<svg xmlns="http://www.w3.org/2000/svg" xml:space="preserve" width="108.373mm" height="104.996mm" version="1.1" style="shape-rendering:geometricPrecision; text-rendering:geometricPrecision; image-rendering:optimizeQuality; fill-rule:evenodd; clip-rule:evenodd"
viewBox="0 0 99.53 100.29"
 xmlns:xlink="http://www.w3.org/1999/xlink">
 <defs>
  <style type="text/css">
   <![CDATA[
    .fil0 {fill:#386958;fill-rule:nonzero}
   ]]>
  </style>
 </defs>
 <g id="Слой_x0020_1">
  <metadata id="CorelCorpID_0Corel-Layer"/>
  <g id="_1242307312">
   <g>
    <path class="fil0" d="M23.62 46.7l-4 1.58 0 0 -0.68 -1.86 -0.59 -1.9 -0.5 -1.94 -0.41 -1.97 -0.31 -1.99 -0.22 -2.01 -0.12 -2.02 -0.02 -2.03 0.08 -2.02 0.18 -2.01 0.28 -2 0.38 -1.98 0.5 -1.96 0.6 -1.92 0.71 -1.88 0.83 -1.84 0.94 -1.78 1.06 -1.72 1.18 -1.66 1.3 -1.58 1.42 -1.49 1.54 -1.4 1.66 -1.3 1.78 -1.19 1.9 -1.08 2.02 -0.95 2.14 -0.82 2.26 -0.68 2.38 -0.54 2.5 -0.39 2.62 -0.24 2.73 -0.08 0 4.29 -2.48 0.08 -2.35 0.21 -2.22 0.35 -2.09 0.47 -1.97 0.6 -1.85 0.71 -1.73 0.81 -1.62 0.92 -1.51 1.01 -1.41 1.1 -1.3 1.19 -1.21 1.27 -1.1 1.34 -1.01 1.42 -0.91 1.48 -0.81 1.54 -0.72 1.6 -0.62 1.65 -0.53 1.69 -0.44 1.73 -0.34 1.76 -0.25 1.78 -0.16 1.8 -0.07 1.81 0.02 1.82 0.11 1.81 0.19 1.8 0.28 1.79 0.36 1.77 0.45 1.74 0.53 1.7 0.61 1.66 0 0zm26.15 22.77l0 4.29 0 0 -1.41 -0.04 -1.39 -0.12 -1.36 -0.2 -1.33 -0.27 -1.3 -0.34 -1.27 -0.41 -1.24 -0.47 -1.21 -0.53 -1.18 -0.59 -1.15 -0.64 -1.12 -0.69 -1.09 -0.74 -1.06 -0.78 -1.02 -0.83 -0.99 -0.86 -0.96 -0.9 -0.93 -0.93 -0.9 -0.96 -0.86 -0.99 -0.83 -1.01 -0.8 -1.04 -0.77 -1.06 -0.74 -1.07 -0.71 -1.09 -0.68 -1.1 -0.64 -1.11 -0.61 -1.11 -0.58 -1.12 -0.55 -1.12 -0.52 -1.12 -0.49 -1.12 -0.46 -1.11 4 -1.58 0.42 1.03 0.45 1.03 0.48 1.03 0.51 1.04 0.53 1.03 0.57 1.03 0.59 1.02 0.62 1.01 0.65 1 0.67 0.98 0.7 0.96 0.72 0.94 0.75 0.92 0.77 0.89 0.8 0.86 0.83 0.83 0.85 0.8 0.87 0.76 0.89 0.72 0.91 0.68 0.93 0.63 0.96 0.59 0.98 0.54 1 0.5 1.02 0.44 1.03 0.39 1.05 0.34 1.08 0.28 1.09 0.22 1.12 0.16 1.14 0.1 1.16 0.03 0 0zm26.15 -22.77l4 1.58 0 0 -0.46 1.11 -0.49 1.12 -0.52 1.12 -0.55 1.12 -0.58 1.12 -0.61 1.11 -0.65 1.11 -0.68 1.1 -0.71 1.09 -0.74 1.08 -0.77 1.05 -0.8 1.04 -0.83 1.01 -0.86 0.99 -0.9 0.96 -0.93 0.93 -0.96 0.9 -0.99 0.86 -1.02 0.83 -1.06 0.78 -1.09 0.74 -1.12 0.69 -1.15 0.64 -1.18 0.59 -1.21 0.53 -1.24 0.47 -1.27 0.41 -1.3 0.34 -1.33 0.27 -1.36 0.2 -1.39 0.12 -1.41 0.04 0 -4.29 1.16 -0.03 1.14 -0.1 1.12 -0.16 1.09 -0.22 1.08 -0.28 1.05 -0.34 1.03 -0.39 1.02 -0.44 1 -0.5 0.98 -0.54 0.96 -0.59 0.93 -0.63 0.91 -0.68 0.89 -0.72 0.87 -0.76 0.85 -0.8 0.83 -0.83 0.8 -0.86 0.77 -0.89 0.75 -0.92 0.72 -0.94 0.7 -0.96 0.68 -0.98 0.65 -1 0.62 -1.01 0.59 -1.02 0.57 -1.03 0.53 -1.03 0.51 -1.04 0.48 -1.03 0.45 -1.03 0.42 -1.03 0 0zm-26.15 -42.41l0 -4.29 0 0 2.73 0.08 2.62 0.24 2.5 0.39 2.38 0.54 2.27 0.68 2.14 0.82 2.02 0.95 1.9 1.08 1.78 1.19 1.66 1.3 1.54 1.4 1.42 1.49 1.3 1.58 1.18 1.66 1.06 1.72 0.94 1.78 0.83 1.84 0.71 1.88 0.6 1.92 0.5 1.96 0.39 1.98 0.28 2 0.18 2.01 0.08 2.02 -0.02 2.03 -0.12 2.02 -0.22 2.01 -0.31 1.99 -0.41 1.97 -0.5 1.94 -0.59 1.9 -0.68 1.86 -4 -1.58 0.61 -1.66 0.53 -1.7 0.45 -1.74 0.37 -1.77 0.28 -1.79 0.2 -1.8 0.11 -1.81 0.02 -1.82 -0.07 -1.81 -0.16 -1.8 -0.25 -1.78 -0.35 -1.76 -0.44 -1.73 -0.53 -1.69 -0.62 -1.65 -0.72 -1.6 -0.81 -1.54 -0.91 -1.48 -1.01 -1.42 -1.1 -1.34 -1.2 -1.27 -1.3 -1.19 -1.41 -1.1 -1.51 -1.01 -1.62 -0.92 -1.73 -0.81 -1.85 -0.71 -1.97 -0.6 -2.09 -0.47 -2.22 -0.35 -2.35 -0.21 -2.48 -0.08 0 0z"/>
   </g>
   <g>
    <path class="fil0" d="M18.61 37.09l1.47 4.02 -2.84 -1.69 -0.22 -1.66 -0.15 -1.68 -0.08 -1.69 -0 -1.7 0.07 -1.71 0.15 -1.7 0.22 -1.7 0.29 -1.69 0.37 -1.68 0.45 -1.66 0.53 -1.64 0.61 -1.62 0.69 -1.59 0.77 -1.55 0.86 -1.51 0.95 -1.47 1.03 -1.42 1.12 -1.36 1.2 -1.3 1.29 -1.24 1.38 -1.17 1.47 -1.09 1.56 -1.01 1.65 -0.92 1.74 -0.83 1.82 -0.73 1.92 -0.63 2 -0.53 2.09 -0.41 2.17 -0.3 2.26 -0.18 2.35 -0.06 0 4.28 -2.12 0.06 -2.02 0.16 -1.93 0.27 -1.84 0.37 -1.75 0.46 -1.66 0.55 -1.57 0.63 -1.49 0.71 -1.41 0.79 -1.33 0.86 -1.25 0.93 -1.18 0.99 -1.1 1.05 -1.03 1.11 -0.95 1.17 -0.89 1.22 -0.81 1.27 -0.74 1.31 -0.68 1.35 -0.6 1.39 -0.53 1.42 -0.47 1.45 -0.39 1.47 -0.33 1.49 -0.26 1.5 -0.19 1.51 -0.13 1.52 -0.06 1.52 0 1.52 0.07 1.51 0.13 1.49 0.2 1.48 -2.84 -1.69zm2.84 1.69c0.18,1.17 -0.62,2.26 -1.79,2.44 -1.16,0.18 -2.26,-0.62 -2.44,-1.79l4.22 -0.65zm11.83 -10.49l-2.61 3.38 2.98 -0.36 -0.33 0.41 -0.34 0.4 -0.34 0.39 -0.35 0.39 -0.36 0.39 -0.36 0.38 -0.37 0.37 -0.38 0.37 -0.38 0.36 -0.39 0.36 -0.39 0.35 -0.4 0.34 -0.41 0.33 -0.41 0.33 -0.42 0.32 -0.42 0.31 -0.43 0.31 -0.44 0.3 -0.44 0.29 -0.45 0.29 -0.45 0.28 -0.45 0.27 -0.46 0.26 -0.47 0.26 -0.47 0.25 -0.48 0.24 -0.48 0.23 -0.49 0.22 -0.5 0.22 -0.5 0.21 -0.5 0.2 -0.51 0.19 -1.47 -4.02 0.43 -0.16 0.44 -0.17 0.43 -0.18 0.42 -0.18 0.41 -0.19 0.42 -0.2 0.41 -0.21 0.41 -0.21 0.41 -0.22 0.39 -0.23 0.4 -0.24 0.39 -0.24 0.38 -0.24 0.38 -0.25 0.38 -0.26 0.36 -0.26 0.37 -0.27 0.36 -0.27 0.35 -0.28 0.35 -0.29 0.35 -0.3 0.34 -0.3 0.33 -0.3 0.33 -0.31 0.32 -0.31 0.32 -0.32 0.32 -0.33 0.3 -0.33 0.3 -0.34 0.3 -0.34 0.29 -0.35 0.28 -0.35 2.98 -0.36zm-2.98 0.36c0.73,-0.93 2.08,-1.08 3,-0.35 0.92,0.73 1.08,2.08 0.35,3.01l-3.35 -2.66zm19.46 5.23l0 4.28 0 0 -0.67 -0.01 -0.67 -0.02 -0.67 -0.04 -0.66 -0.05 -0.66 -0.06 -0.65 -0.07 -0.65 -0.09 -0.65 -0.1 -0.64 -0.11 -0.64 -0.13 -0.64 -0.14 -0.63 -0.15 -0.62 -0.17 -0.62 -0.18 -0.61 -0.19 -0.61 -0.2 -0.6 -0.21 -0.6 -0.23 -0.59 -0.24 -0.58 -0.25 -0.57 -0.26 -0.57 -0.27 -0.57 -0.28 -0.56 -0.3 -0.55 -0.3 -0.54 -0.32 -0.53 -0.33 -0.53 -0.34 -0.52 -0.35 -0.51 -0.35 -0.51 -0.37 -0.49 -0.38 2.61 -3.38 0.43 0.32 0.43 0.32 0.44 0.31 0.45 0.3 0.45 0.29 0.46 0.28 0.47 0.27 0.47 0.26 0.48 0.25 0.48 0.24 0.49 0.24 0.5 0.23 0.5 0.22 0.51 0.21 0.51 0.19 0.52 0.19 0.52 0.18 0.53 0.16 0.53 0.15 0.54 0.14 0.54 0.14 0.54 0.12 0.55 0.11 0.56 0.1 0.56 0.09 0.56 0.08 0.57 0.06 0.57 0.06 0.57 0.04 0.58 0.03 0.58 0.02 0.59 0.01 0 0zm19.47 -5.23l-3.35 2.66 2.98 0.36 -0.49 0.38 -0.51 0.37 -0.51 0.35 -0.52 0.35 -0.53 0.34 -0.53 0.33 -0.54 0.32 -0.55 0.3 -0.56 0.3 -0.57 0.28 -0.57 0.27 -0.57 0.26 -0.58 0.25 -0.59 0.24 -0.6 0.23 -0.6 0.21 -0.61 0.2 -0.61 0.19 -0.62 0.18 -0.62 0.17 -0.63 0.15 -0.63 0.14 -0.64 0.13 -0.64 0.11 -0.64 0.1 -0.65 0.09 -0.65 0.07 -0.66 0.06 -0.66 0.05 -0.67 0.04 -0.67 0.02 -0.67 0.01 0 -4.28 0.59 -0.01 0.58 -0.02 0.58 -0.03 0.57 -0.04 0.57 -0.06 0.57 -0.06 0.56 -0.08 0.56 -0.09 0.56 -0.1 0.55 -0.11 0.54 -0.12 0.54 -0.14 0.54 -0.14 0.53 -0.15 0.53 -0.16 0.52 -0.18 0.52 -0.19 0.51 -0.19 0.5 -0.21 0.51 -0.22 0.5 -0.22 0.49 -0.24 0.48 -0.24 0.48 -0.25 0.47 -0.26 0.47 -0.27 0.46 -0.28 0.45 -0.29 0.45 -0.3 0.44 -0.31 0.43 -0.32 0.43 -0.32 2.98 0.36zm-2.98 -0.36c0.93,-0.72 2.28,-0.55 2.99,0.38 0.72,0.93 0.55,2.28 -0.38,3l-2.61 -3.38zm11.83 10.49l4.22 0.65 -2.84 1.69 -0.51 -0.19 -0.5 -0.2 -0.5 -0.21 -0.49 -0.22 -0.49 -0.22 -0.48 -0.23 -0.48 -0.24 -0.47 -0.25 -0.47 -0.26 -0.46 -0.26 -0.46 -0.27 -0.46 -0.28 -0.44 -0.28 -0.44 -0.29 -0.44 -0.3 -0.43 -0.31 -0.43 -0.31 -0.42 -0.32 -0.41 -0.33 -0.41 -0.34 -0.4 -0.34 -0.39 -0.35 -0.39 -0.35 -0.38 -0.36 -0.38 -0.37 -0.37 -0.37 -0.36 -0.38 -0.36 -0.39 -0.35 -0.39 -0.34 -0.4 -0.34 -0.41 -0.33 -0.41 3.35 -2.66 0.28 0.35 0.29 0.35 0.3 0.34 0.3 0.34 0.3 0.33 0.32 0.33 0.32 0.32 0.32 0.31 0.33 0.31 0.33 0.3 0.34 0.3 0.34 0.29 0.35 0.29 0.36 0.28 0.36 0.27 0.37 0.27 0.37 0.26 0.37 0.26 0.39 0.25 0.38 0.25 0.39 0.24 0.4 0.23 0.4 0.23 0.41 0.22 0.41 0.21 0.41 0.21 0.42 0.2 0.42 0.19 0.42 0.18 0.43 0.18 0.44 0.17 0.43 0.16 -2.84 1.69zm2.84 -1.69c1.11,0.41 1.68,1.64 1.27,2.75 -0.4,1.11 -1.63,1.68 -2.74,1.27l1.47 -4.02zm-31.16 -32.81l0 -4.28 0 0 2.35 0.06 2.26 0.18 2.17 0.3 2.09 0.41 2 0.53 1.92 0.63 1.83 0.73 1.74 0.83 1.65 0.92 1.56 1.01 1.47 1.09 1.38 1.17 1.29 1.24 1.2 1.3 1.12 1.36 1.03 1.42 0.94 1.47 0.86 1.51 0.77 1.55 0.69 1.59 0.61 1.61 0.53 1.64 0.45 1.66 0.37 1.68 0.29 1.69 0.22 1.7 0.14 1.7 0.07 1.71 -0 1.7 -0.08 1.69 -0.15 1.68 -0.22 1.66 -4.22 -0.65 0.2 -1.48 0.13 -1.49 0.07 -1.51 0 -1.52 -0.06 -1.52 -0.12 -1.52 -0.19 -1.51 -0.26 -1.5 -0.33 -1.49 -0.39 -1.47 -0.47 -1.45 -0.53 -1.42 -0.6 -1.38 -0.67 -1.35 -0.74 -1.31 -0.81 -1.27 -0.88 -1.22 -0.95 -1.17 -1.03 -1.11 -1.1 -1.06 -1.17 -0.99 -1.25 -0.93 -1.33 -0.86 -1.41 -0.79 -1.49 -0.71 -1.58 -0.63 -1.66 -0.55 -1.75 -0.46 -1.84 -0.37 -1.93 -0.27 -2.02 -0.16 -2.12 -0.06 0 0z"/>
   </g>
   <g>
    <path class="fil0" d="M97.39 100.29l-47.63 0 0 -4.28 47.63 0 2.14 2.14 -2.14 2.14zm0 -4.28c1.18,0 2.14,0.96 2.14,2.14 0,1.18 -0.96,2.14 -2.14,2.14l0 -4.28zm2.14 -15.01l0 17.15 -4.28 0 0 -17.15 0 0 4.28 0zm-13.01 -9.89l1.2 -4.11 0 0 0.58 0.18 0.57 0.2 0.56 0.22 0.56 0.24 0.55 0.26 0.54 0.27 0.53 0.29 0.53 0.31 0.51 0.33 0.49 0.34 0.49 0.36 0.48 0.38 0.46 0.4 0.44 0.41 0.43 0.43 0.42 0.44 0.4 0.45 0.38 0.47 0.36 0.49 0.34 0.5 0.33 0.52 0.3 0.53 0.28 0.55 0.26 0.56 0.23 0.56 0.21 0.59 0.17 0.59 0.15 0.6 0.12 0.62 0.09 0.63 0.05 0.63 0.02 0.64 -4.28 0 -0.01 -0.41 -0.03 -0.41 -0.05 -0.4 -0.07 -0.4 -0.1 -0.4 -0.11 -0.39 -0.14 -0.39 -0.16 -0.39 -0.17 -0.38 -0.2 -0.38 -0.21 -0.37 -0.23 -0.36 -0.25 -0.36 -0.26 -0.35 -0.28 -0.34 -0.3 -0.34 -0.3 -0.33 -0.32 -0.32 -0.34 -0.31 -0.35 -0.3 -0.36 -0.28 -0.37 -0.28 -0.39 -0.27 -0.39 -0.25 -0.4 -0.24 -0.41 -0.23 -0.42 -0.21 -0.41 -0.19 -0.42 -0.18 -0.43 -0.17 -0.43 -0.15 -0.43 -0.13 0 0zm-18.18 -9.75l19.38 5.65 -1.2 4.11 -19.38 -5.65 -0.92 -3.56 2.11 -0.54zm-1.2 4.11c-1.13,-0.33 -1.78,-1.52 -1.45,-2.65 0.33,-1.13 1.52,-1.78 2.65,-1.45l-1.2 4.11zm-17.38 8.28l0 -4.28 0 0 0.6 -0.01 0.59 -0.03 0.59 -0.04 0.58 -0.06 0.58 -0.08 0.57 -0.09 0.57 -0.11 0.56 -0.12 0.56 -0.14 0.55 -0.16 0.54 -0.17 0.54 -0.18 0.53 -0.2 0.53 -0.21 0.53 -0.23 0.52 -0.24 0.51 -0.25 0.51 -0.27 0.5 -0.28 0.5 -0.29 0.49 -0.3 0.48 -0.32 0.48 -0.33 0.48 -0.34 0.47 -0.35 0.46 -0.36 0.46 -0.37 0.45 -0.38 0.44 -0.39 0.44 -0.41 0.43 -0.41 0.43 -0.42 3.03 3.02 -0.48 0.47 -0.49 0.47 -0.5 0.46 -0.51 0.45 -0.52 0.44 -0.52 0.42 -0.53 0.41 -0.54 0.41 -0.55 0.39 -0.56 0.38 -0.57 0.37 -0.57 0.35 -0.58 0.34 -0.59 0.33 -0.6 0.32 -0.61 0.3 -0.62 0.29 -0.62 0.27 -0.63 0.26 -0.64 0.24 -0.65 0.23 -0.66 0.21 -0.67 0.19 -0.67 0.17 -0.68 0.15 -0.69 0.13 -0.69 0.11 -0.7 0.09 -0.71 0.07 -0.71 0.05 -0.72 0.03 -0.73 0.01 0 0zm-17.38 -8.28l-1.2 -4.11 2.11 0.54 0.43 0.42 0.43 0.41 0.44 0.41 0.44 0.39 0.45 0.38 0.46 0.37 0.46 0.36 0.47 0.35 0.48 0.34 0.48 0.33 0.48 0.32 0.49 0.3 0.5 0.29 0.5 0.28 0.51 0.27 0.51 0.25 0.51 0.24 0.53 0.23 0.53 0.21 0.53 0.2 0.54 0.18 0.54 0.17 0.55 0.16 0.55 0.14 0.56 0.12 0.56 0.11 0.57 0.09 0.58 0.08 0.58 0.06 0.59 0.04 0.59 0.03 0.6 0.01 0 4.28 -0.73 -0.01 -0.72 -0.03 -0.71 -0.05 -0.71 -0.07 -0.7 -0.09 -0.69 -0.11 -0.68 -0.13 -0.68 -0.15 -0.68 -0.17 -0.66 -0.19 -0.65 -0.2 -0.65 -0.23 -0.64 -0.24 -0.63 -0.26 -0.62 -0.27 -0.62 -0.29 -0.61 -0.3 -0.59 -0.31 -0.59 -0.33 -0.58 -0.34 -0.57 -0.35 -0.57 -0.37 -0.56 -0.38 -0.55 -0.39 -0.54 -0.41 -0.53 -0.41 -0.52 -0.42 -0.52 -0.44 -0.51 -0.45 -0.5 -0.46 -0.49 -0.47 -0.48 -0.47 2.11 0.54zm-2.11 -0.54c-0.83,-0.83 -0.83,-2.19 0,-3.02 0.83,-0.83 2.19,-0.83 3.02,0l-3.03 3.02zm-18.46 2.08l19.38 -5.65 1.2 4.11 -19.38 5.65 -1.2 -4.11zm-7.53 14l-4.28 0 0 0 0.02 -0.64 0.05 -0.63 0.09 -0.63 0.12 -0.62 0.15 -0.6 0.17 -0.59 0.21 -0.59 0.23 -0.56 0.26 -0.56 0.28 -0.55 0.3 -0.53 0.33 -0.52 0.34 -0.5 0.36 -0.49 0.38 -0.47 0.4 -0.45 0.42 -0.44 0.43 -0.43 0.44 -0.41 0.46 -0.4 0.48 -0.38 0.49 -0.36 0.49 -0.34 0.51 -0.33 0.53 -0.31 0.53 -0.29 0.54 -0.27 0.55 -0.26 0.56 -0.24 0.56 -0.22 0.57 -0.2 0.58 -0.18 1.2 4.11 -0.43 0.13 -0.43 0.15 -0.43 0.17 -0.42 0.18 -0.41 0.19 -0.42 0.21 -0.41 0.23 -0.4 0.24 -0.39 0.25 -0.39 0.27 -0.37 0.28 -0.36 0.28 -0.35 0.3 -0.34 0.31 -0.32 0.32 -0.3 0.33 -0.3 0.34 -0.28 0.34 -0.26 0.35 -0.25 0.36 -0.23 0.36 -0.21 0.37 -0.2 0.38 -0.17 0.38 -0.16 0.39 -0.14 0.39 -0.11 0.39 -0.1 0.4 -0.07 0.4 -0.05 0.4 -0.03 0.41 -0.01 0.41 0 0zm-4.28 17.15l0 -17.15 4.28 0 0 17.15 -2.14 2.14 -2.14 -2.14zm4.28 0c0,1.18 -0.96,2.14 -2.14,2.14 -1.18,0 -2.14,-0.96 -2.14,-2.14l4.28 0zm45.49 2.14l-47.63 0 0 -4.28 47.63 0 0 0 0 4.28zm0 -4.28c1.18,0 2.14,0.96 2.14,2.14 0,1.18 -0.96,2.14 -2.14,2.14l0 -4.28z"/>
   </g>
  </g>
 </g>
</svg>
